<svg width="104" height="30" viewBox="0 0 104 30" fill="none" xmlns="http://www.w3.org/2000/svg">
<rect width="104" height="30" rx="4" fill="#5865F2"/>
<path d="M23.5447 9.91321C22.5074 9.43705 21.4126 9.0975 20.2879 8.90307C20.2777 8.90117 20.2672 8.90253 20.2578 8.90697C20.2484 8.91141 20.2406 8.9187 20.2356 8.92781C20.0949 9.17801 19.9391 9.50434 19.8301 9.76081C18.6003 9.57667 17.3767 9.57667 16.1722 9.76081C16.0631 9.49861 15.9017 9.17801 15.7604 8.92781C15.7552 8.91891 15.7474 8.9118 15.738 8.9074C15.7287 8.903 15.7183 8.90152 15.7081 8.90314C14.5833 9.09712 13.4885 9.43664 12.4513 9.91314C12.4424 9.91693 12.4349 9.92339 12.4299 9.93161C10.3556 13.0305 9.78734 16.0533 10.0661 19.0385C10.0669 19.0459 10.0692 19.0529 10.0727 19.0594C10.0763 19.0658 10.0811 19.0714 10.0869 19.0759C11.4555 20.081 12.7811 20.6911 14.0822 21.0955C14.0923 21.0986 14.1031 21.0984 14.1131 21.0951C14.1232 21.0918 14.132 21.0856 14.1383 21.0771C14.4461 20.6569 14.7204 20.2137 14.9557 19.7477C14.9589 19.7413 14.9607 19.7343 14.9611 19.7272C14.9614 19.72 14.9602 19.7129 14.9576 19.7062C14.955 19.6996 14.951 19.6935 14.9459 19.6885C14.9408 19.6835 14.9347 19.6797 14.9279 19.6772C14.4927 19.5121 14.0784 19.3109 13.6798 19.0823C13.6725 19.0781 13.6664 19.0721 13.662 19.0649C13.6576 19.0577 13.6551 19.0495 13.6546 19.0411C13.6541 19.0327 13.6556 19.0243 13.6592 19.0166C13.6627 19.009 13.668 19.0023 13.6747 18.9972C13.7586 18.9343 13.8425 18.869 13.9226 18.8029C13.9297 18.7971 13.9383 18.7933 13.9475 18.7921C13.9566 18.7908 13.9659 18.7922 13.9743 18.7959C16.5929 19.9915 19.4277 19.9915 22.0153 18.7959C22.0237 18.7919 22.0331 18.7904 22.0424 18.7915C22.0516 18.7926 22.0604 18.7964 22.0676 18.8023C22.1477 18.8683 22.2316 18.9343 22.3161 18.9972C22.3229 19.0023 22.3282 19.0089 22.3318 19.0165C22.3354 19.0241 22.337 19.0325 22.3366 19.0409C22.3361 19.0493 22.3337 19.0575 22.3293 19.0647C22.325 19.0719 22.3189 19.0779 22.3117 19.0823C21.913 19.3152 21.4953 19.514 21.0631 19.6765C21.0564 19.6791 21.0503 19.6831 21.0452 19.6881C21.0401 19.6932 21.0362 19.6993 21.0336 19.706C21.031 19.7128 21.0299 19.7199 21.0303 19.7271C21.0307 19.7343 21.0326 19.7413 21.0359 19.7477C21.2762 20.213 21.5505 20.6562 21.8526 21.0765C21.8588 21.0851 21.8675 21.0917 21.8776 21.0951C21.8877 21.0985 21.8986 21.0987 21.9087 21.0955C23.2161 20.6911 24.5417 20.0809 25.9103 19.0759C25.9162 19.0716 25.9211 19.0661 25.9247 19.0598C25.9283 19.0534 25.9305 19.0464 25.9311 19.0391C26.2647 15.5878 25.3723 12.5899 23.5655 9.93221C23.561 9.92357 23.5537 9.91688 23.5447 9.91321ZM15.3467 17.2208C14.5583 17.2208 13.9087 16.497 13.9087 15.6081C13.9087 14.7193 14.5457 13.9955 15.3467 13.9955C16.1539 13.9955 16.7972 14.7257 16.7846 15.6082C16.7846 16.497 16.1476 17.2208 15.3467 17.2208ZM20.6632 17.2208C19.8749 17.2208 19.2253 16.497 19.2253 15.6081C19.2253 14.7193 19.8622 13.9955 20.6632 13.9955C21.4704 13.9955 22.1137 14.7257 22.1011 15.6082C22.1011 16.497 21.4704 17.2208 20.6632 17.2208Z" fill="white"/>
<path d="M34.792 19V11.3H37.333C39.863 11.3 41.392 12.466 41.392 15.15C41.392 17.834 39.863 19 37.333 19H34.792ZM37.399 17.548C38.972 17.548 39.852 16.8 39.852 15.15C39.852 13.5 38.972 12.752 37.399 12.752H36.288V17.548H37.399ZM42.4497 19V13.192H43.8577V19H42.4497ZM42.4167 12.521V11.047H43.8907V12.521H42.4167ZM47.2546 19.11C46.2646 19.11 45.5276 18.758 44.8676 18.219L45.6156 17.207C46.0776 17.614 46.6276 17.9 47.2546 17.9C47.8376 17.9 48.1676 17.702 48.1676 17.328C48.1676 16.976 47.9256 16.855 47.4526 16.756L46.7156 16.602C45.7146 16.393 45.1316 15.887 45.1316 14.941C45.1316 13.797 45.9566 13.082 47.2876 13.082C48.1236 13.082 48.8716 13.335 49.4766 13.885L48.6956 14.853C48.2666 14.501 47.8046 14.292 47.2656 14.292C46.8696 14.292 46.4956 14.424 46.4956 14.787C46.4956 15.062 46.6716 15.238 47.2326 15.359L48.0466 15.535C48.9156 15.722 49.5646 16.173 49.5646 17.141C49.5646 18.373 48.6516 19.11 47.2546 19.11ZM53.155 19.11C51.417 19.11 50.273 17.889 50.273 16.096C50.273 14.303 51.417 13.082 53.155 13.082C54.057 13.082 54.937 13.456 55.432 14.105L54.486 15.051C54.178 14.666 53.694 14.38 53.122 14.38C52.286 14.38 51.703 15.007 51.703 16.096C51.703 17.185 52.286 17.812 53.122 17.812C53.694 17.812 54.178 17.526 54.486 17.141L55.432 18.087C54.937 18.736 54.057 19.11 53.155 19.11ZM58.912 19.11C57.163 19.11 56.063 17.889 56.063 16.096C56.063 14.303 57.163 13.082 58.912 13.082C60.661 13.082 61.761 14.303 61.761 16.096C61.761 17.889 60.661 19.11 58.912 19.11ZM58.923 17.812C59.759 17.812 60.331 17.185 60.331 16.096C60.331 15.007 59.759 14.38 58.923 14.38C58.087 14.38 57.493 15.007 57.493 16.096C57.493 17.185 58.087 17.812 58.923 17.812ZM62.8813 19V13.192H64.2893V14.017L64.4653 14.083C64.7733 13.456 65.3123 13.082 65.9943 13.082C66.1593 13.082 66.3353 13.104 66.4893 13.137V14.567C66.2693 14.49 65.9943 14.435 65.6423 14.435C65.0373 14.435 64.5203 14.82 64.2893 15.326V19H62.8813ZM69.3968 19.11C68.0548 19.11 66.9878 18.076 66.9878 16.096C66.9878 14.138 68.1538 13.082 69.8148 13.082C70.3318 13.082 70.8598 13.214 71.2008 13.401V11.19H72.6088V19H71.2008V18.186L71.0248 18.12C70.7058 18.813 70.1228 19.11 69.3968 19.11ZM69.8038 17.812C70.3538 17.812 70.9368 17.559 71.2008 17.031V14.677C70.8378 14.457 70.3978 14.38 69.9578 14.38C69.0998 14.38 68.4178 14.919 68.4178 16.096C68.4178 17.163 68.8908 17.812 69.8038 17.812Z" fill="white"/>
<path d="M87.625 10.1875C87.7813 10.1875 87.9141 10.2422 88.0235 10.3516C88.1328 10.4609 88.1875 10.5938 88.1875 10.75C88.1875 10.9062 88.1328 11.0391 88.0235 11.1484C87.9141 11.2578 87.7813 11.3125 87.625 11.3125H84.0625V19.1875H91.9375V15.625C91.9375 15.4688 91.9922 15.3359 92.1016 15.2266C92.211 15.1172 92.3438 15.0625 92.5 15.0625C92.6563 15.0625 92.7891 15.1172 92.8985 15.2266C93.0078 15.3359 93.0625 15.4688 93.0625 15.625V19.375C93.0625 19.543 93.0196 19.6992 92.9336 19.8438C92.8516 19.9883 92.7383 20.1016 92.5938 20.1836C92.4492 20.2695 92.293 20.3125 92.125 20.3125H83.875C83.7071 20.3125 83.5508 20.2695 83.4063 20.1836C83.2617 20.1016 83.1465 19.9883 83.0606 19.8438C82.9785 19.6992 82.9375 19.543 82.9375 19.375V11.125C82.9375 10.957 82.9785 10.8008 83.0606 10.6562C83.1465 10.5117 83.2617 10.3984 83.4063 10.3164C83.5508 10.2305 83.7071 10.1875 83.875 10.1875H87.625ZM92.5 10.1875C92.6563 10.1875 92.7891 10.2422 92.8985 10.3516C93.0078 10.4609 93.0625 10.5938 93.0625 10.75V13C93.0625 13.1562 93.0078 13.2891 92.8985 13.3984C92.7891 13.5078 92.6563 13.5625 92.5 13.5625C92.3438 13.5625 92.211 13.5078 92.1016 13.3984C91.9922 13.2891 91.9375 13.1562 91.9375 13V12.1094L88.3985 15.6484C88.2891 15.7578 88.1563 15.8125 88 15.8125C87.8438 15.8125 87.711 15.7578 87.6016 15.6484C87.4922 15.5391 87.4375 15.4062 87.4375 15.25C87.4375 15.0938 87.4922 14.9609 87.6016 14.8516L91.1406 11.3125H90.25C90.0938 11.3125 89.961 11.2578 89.8516 11.1484C89.7422 11.0391 89.6875 10.9062 89.6875 10.75C89.6875 10.5938 89.7422 10.4609 89.8516 10.3516C89.961 10.2422 90.0938 10.1875 90.25 10.1875H92.5Z" fill="white"/>
</svg>
