<svg width="200" height="200" viewBox="0 0 200 200" fill="none" xmlns="http://www.w3.org/2000/svg">
<rect width="200" height="200" fill="#0D1116"/>
<path fill-rule="evenodd" clip-rule="evenodd" d="M56.3077 60.1816H69.2308C70.9301 60.1816 72.3077 61.5592 72.3077 63.2586C72.3077 64.9579 70.9301 66.3355 69.2308 66.3355H62.4615V86.6869L49.2526 99.8958C48.051 101.097 46.1028 101.097 44.9012 99.8958C43.6996 98.6942 43.6996 96.746 44.9012 95.5444L56.3077 84.1379V60.1816Z" fill="#9333EA"/>
<path fill-rule="evenodd" clip-rule="evenodd" d="M56.3077 135.258H69.2308C70.9301 135.258 72.3077 133.88 72.3077 132.181C72.3077 130.482 70.9301 129.104 69.2308 129.104H62.4615V108.753L49.2526 95.5436C48.051 94.342 46.1028 94.342 44.9012 95.5436C43.6996 96.7453 43.6996 98.6935 44.9012 99.8951L56.3077 111.302V135.258Z" fill="#9333EA"/>
<path fill-rule="evenodd" clip-rule="evenodd" d="M143.692 60.1816H130.769C129.07 60.1816 127.692 61.5592 127.692 63.2586C127.692 64.9579 129.07 66.3355 130.769 66.3355H137.538V86.6869L150.747 99.8958C151.949 101.097 153.897 101.097 155.099 99.8958C156.3 98.6942 156.3 96.746 155.099 95.5444L143.692 84.1379V60.1816Z" fill="#9333EA"/>
<path fill-rule="evenodd" clip-rule="evenodd" d="M143.692 135.258H130.769C129.07 135.258 127.692 133.88 127.692 132.181C127.692 130.482 129.07 129.104 130.769 129.104H137.538V108.753L150.747 95.5436C151.949 94.342 153.897 94.342 155.099 95.5436C156.3 96.7453 156.3 98.6935 155.099 99.8951L143.692 111.302V135.258Z" fill="#9333EA"/>
<path fill-rule="evenodd" clip-rule="evenodd" d="M111.957 72.0688L96.1123 69.842L96.9688 63.748L112.813 65.9748L111.957 72.0688Z" fill="#9333EA"/>
<path fill-rule="evenodd" clip-rule="evenodd" d="M92.6748 50.094C93.1478 46.7284 96.2596 44.3834 99.6252 44.8564L115.469 47.0832C118.835 47.5562 121.18 50.668 120.707 54.0336L109.059 136.911C108.853 138.378 108.125 139.72 107.01 140.693L97.8027 148.721C96.4575 149.894 94.6694 150.425 92.9021 150.177C91.1347 149.928 89.5622 148.925 88.5925 147.426L81.955 137.172C81.1505 135.929 80.821 134.438 81.0271 132.972L92.6748 50.094ZM87.121 133.828L98.7688 50.9504L114.613 53.1772L102.965 136.055L93.7585 144.083L87.121 133.828Z" fill="#9333EA"/>
<path d="M102.965 136.055L87.1211 133.828L93.7586 144.082L102.965 136.055Z" fill="#9333EA"/>
<rect width="200" height="200" fill="url(#paint0_radial_319_100)"/>
<defs>
<radialGradient id="paint0_radial_319_100" cx="0" cy="0" r="1" gradientUnits="userSpaceOnUse" gradientTransform="translate(100 -6.89654) rotate(90) scale(206.897 312.733)">
<stop stop-color="#D9D9D9"/>
<stop offset="0.0001" stop-color="white" stop-opacity="0.08"/>
<stop offset="0.504201" stop-color="white" stop-opacity="0"/>
</radialGradient>
</defs>
</svg>
