<svg width="162" height="32" viewBox="0 0 162 32" fill="none" xmlns="http://www.w3.org/2000/svg">
<rect width="162" height="32" rx="4" fill="black"/>
<path fill-rule="evenodd" clip-rule="evenodd" d="M11.5956 14.6625L13.3817 8L26 11.3818L24.7817 15.9255L16.7088 13.7621L16.1411 15.8792L11.5956 14.6625ZM11.2183 16.0728L19.2912 18.2363L19.8589 16.1192L24.4044 17.3375L22.6183 24L10 20.6182L11.2183 16.0728Z" fill="#F7F7F8"/>
<path d="M38.169 20.11C36.123 20.11 34.33 18.834 34.33 16.15C34.33 13.686 36.035 12.19 38.114 12.19C39.302 12.19 40.424 12.685 41.095 13.642L40.072 14.621C39.489 13.917 38.928 13.642 38.158 13.642C36.816 13.642 35.859 14.522 35.859 16.15C35.859 17.822 36.86 18.68 38.169 18.68C38.763 18.68 39.214 18.548 39.588 18.328V17.272H38.048V15.908H41.084V19.098C40.424 19.604 39.533 20.11 38.169 20.11ZM44.949 20.11C43.178 20.11 42.023 18.9 42.023 17.107C42.023 15.314 43.178 14.082 44.828 14.082C46.61 14.082 47.501 15.314 47.501 17.03V17.525H43.442C43.585 18.471 44.135 18.834 44.949 18.834C45.543 18.834 45.983 18.647 46.445 18.262L47.292 19.274C46.665 19.857 45.796 20.11 44.949 20.11ZM44.828 15.27C44.124 15.27 43.662 15.644 43.486 16.381H46.104C46.016 15.677 45.554 15.27 44.828 15.27ZM50.9379 20.11C49.6839 20.11 48.9249 19.45 48.9249 18.207V15.391H47.9789V14.192H48.9249V12.773H50.3329V14.192H51.9609V15.391H50.3329V18.02C50.3329 18.526 50.6849 18.823 51.2569 18.823C51.5319 18.823 51.7849 18.779 52.0819 18.691V19.901C51.7739 20.033 51.3559 20.11 50.9379 20.11ZM55.7485 20V14.192H57.1565V20H55.7485ZM55.7155 13.521V12.047H57.1895V13.521H55.7155ZM60.9819 20.11C59.7279 20.11 58.9689 19.45 58.9689 18.207V15.391H58.0229V14.192H58.9689V12.773H60.3769V14.192H62.0049V15.391H60.3769V18.02C60.3769 18.526 60.7289 18.823 61.3009 18.823C61.5759 18.823 61.8289 18.779 62.1259 18.691V19.901C61.8179 20.033 61.3999 20.11 60.9819 20.11ZM68.3114 20.11C66.5624 20.11 65.4624 18.889 65.4624 17.096C65.4624 15.303 66.5624 14.082 68.3114 14.082C70.0604 14.082 71.1604 15.303 71.1604 17.096C71.1604 18.889 70.0604 20.11 68.3114 20.11ZM68.3224 18.812C69.1584 18.812 69.7304 18.185 69.7304 17.096C69.7304 16.007 69.1584 15.38 68.3224 15.38C67.4864 15.38 66.8924 16.007 66.8924 17.096C66.8924 18.185 67.4864 18.812 68.3224 18.812ZM72.2807 20V14.192H73.6887V15.017L73.8647 15.083C74.1397 14.522 74.6677 14.082 75.5257 14.082C76.8017 14.082 77.4947 14.962 77.4947 16.271V20H76.0867V16.645C76.0867 15.765 75.6467 15.38 74.9537 15.38C74.3817 15.38 73.9087 15.71 73.6887 16.161V20H72.2807ZM85.0251 20.11C82.9461 20.11 81.2411 18.614 81.2411 16.15C81.2411 13.686 82.9461 12.19 85.0251 12.19C86.2131 12.19 87.3351 12.685 88.0061 13.642L86.9831 14.621C86.4001 13.917 85.8391 13.642 85.0691 13.642C83.7271 13.642 82.7701 14.522 82.7701 16.15C82.7701 17.778 83.7271 18.658 85.0691 18.658C85.8391 18.658 86.4001 18.383 86.9831 17.679L88.0061 18.658C87.3351 19.615 86.2131 20.11 85.0251 20.11ZM89.0278 20V14.192H90.4358V15.017L90.6118 15.083C90.9198 14.456 91.4588 14.082 92.1408 14.082C92.3058 14.082 92.4818 14.104 92.6358 14.137V15.567C92.4158 15.49 92.1408 15.435 91.7888 15.435C91.1838 15.435 90.6668 15.82 90.4358 16.326V20H89.0278ZM96.0818 20.11C94.3108 20.11 93.1558 18.9 93.1558 17.107C93.1558 15.314 94.3108 14.082 95.9608 14.082C97.7428 14.082 98.6338 15.314 98.6338 17.03V17.525H94.5748C94.7178 18.471 95.2678 18.834 96.0818 18.834C96.6758 18.834 97.1158 18.647 97.5778 18.262L98.4248 19.274C97.7978 19.857 96.9288 20.11 96.0818 20.11ZM95.9608 15.27C95.2568 15.27 94.7948 15.644 94.6188 16.381H97.2368C97.1488 15.677 96.6868 15.27 95.9608 15.27ZM101.202 20.11C100.234 20.11 99.3648 19.505 99.3648 18.284C99.3648 17.184 100.157 16.458 101.708 16.458H103.05V16.26C103.05 15.622 102.555 15.413 102.016 15.413C101.367 15.413 100.806 15.677 100.223 16.106L99.5738 15.017C100.267 14.445 101.092 14.082 102.093 14.082C103.314 14.082 104.458 14.643 104.458 16.271V20H103.05V19.34L102.874 19.274C102.489 19.813 101.961 20.11 101.202 20.11ZM100.773 18.185C100.773 18.614 101.136 18.9 101.664 18.9C102.28 18.9 102.775 18.548 103.05 18.141V17.47H101.686C101.103 17.47 100.773 17.712 100.773 18.185ZM108.183 20.11C106.929 20.11 106.17 19.45 106.17 18.207V15.391H105.224V14.192H106.17V12.773H107.578V14.192H109.206V15.391H107.578V18.02C107.578 18.526 107.93 18.823 108.502 18.823C108.777 18.823 109.03 18.779 109.327 18.691V19.901C109.019 20.033 108.601 20.11 108.183 20.11ZM112.698 20.11C110.949 20.11 109.849 18.889 109.849 17.096C109.849 15.303 110.949 14.082 112.698 14.082C114.447 14.082 115.547 15.303 115.547 17.096C115.547 18.889 114.447 20.11 112.698 20.11ZM112.709 18.812C113.545 18.812 114.117 18.185 114.117 17.096C114.117 16.007 113.545 15.38 112.709 15.38C111.873 15.38 111.279 16.007 111.279 17.096C111.279 18.185 111.873 18.812 112.709 18.812ZM116.667 20V14.192H118.075V15.017L118.251 15.083C118.559 14.456 119.098 14.082 119.78 14.082C119.945 14.082 120.121 14.104 120.275 14.137V15.567C120.055 15.49 119.78 15.435 119.428 15.435C118.823 15.435 118.306 15.82 118.075 16.326V20H116.667ZM126.392 20.11C125.182 20.11 124.181 19.67 123.532 18.944L124.489 17.866C125.006 18.394 125.688 18.702 126.37 18.702C127.184 18.702 127.624 18.317 127.624 17.778C127.624 17.294 127.426 17.008 126.645 16.799L125.765 16.568C124.566 16.249 123.939 15.479 123.939 14.456C123.939 13.059 124.929 12.19 126.458 12.19C127.481 12.19 128.416 12.564 129.12 13.213L128.218 14.357C127.624 13.785 127.008 13.598 126.469 13.598C125.842 13.598 125.435 13.862 125.435 14.335C125.435 14.808 125.787 15.017 126.37 15.182L127.349 15.457C128.592 15.809 129.164 16.458 129.164 17.635C129.164 19.23 127.877 20.11 126.392 20.11ZM132.632 20.11C131.378 20.11 130.619 19.45 130.619 18.207V15.391H129.673V14.192H130.619V12.773H132.027V14.192H133.655V15.391H132.027V18.02C132.027 18.526 132.379 18.823 132.951 18.823C133.226 18.823 133.479 18.779 133.776 18.691V19.901C133.468 20.033 133.05 20.11 132.632 20.11ZM137.147 20.11C135.398 20.11 134.298 18.889 134.298 17.096C134.298 15.303 135.398 14.082 137.147 14.082C138.896 14.082 139.996 15.303 139.996 17.096C139.996 18.889 138.896 20.11 137.147 20.11ZM137.158 18.812C137.994 18.812 138.566 18.185 138.566 17.096C138.566 16.007 137.994 15.38 137.158 15.38C136.322 15.38 135.728 16.007 135.728 17.096C135.728 18.185 136.322 18.812 137.158 18.812ZM141.117 20V14.192H142.525V15.017L142.701 15.083C143.009 14.456 143.548 14.082 144.23 14.082C144.395 14.082 144.571 14.104 144.725 14.137V15.567C144.505 15.49 144.23 15.435 143.878 15.435C143.273 15.435 142.756 15.82 142.525 16.326V20H141.117ZM148.171 20.11C146.4 20.11 145.245 18.9 145.245 17.107C145.245 15.314 146.4 14.082 148.05 14.082C149.832 14.082 150.723 15.314 150.723 17.03V17.525H146.664C146.807 18.471 147.357 18.834 148.171 18.834C148.765 18.834 149.205 18.647 149.667 18.262L150.514 19.274C149.887 19.857 149.018 20.11 148.171 20.11ZM148.05 15.27C147.346 15.27 146.884 15.644 146.708 16.381H149.326C149.238 15.677 148.776 15.27 148.05 15.27Z" fill="white"/>
</svg>
