<svg width="87" height="32" viewBox="0 0 87 32" fill="none" xmlns="http://www.w3.org/2000/svg">
<rect width="87" height="32" rx="4" fill="#AD4646"/>
<g clip-path="url(#clip0_4_49)">
<path d="M15.28 23.88L14.48 27.08C14.48 27.08 21.76 27.28 24.8 24.8C27.84 22.32 27.08 22.48 27.08 22.48L23.88 19.44L15.28 23.88Z" fill="#F2C57E"/>
<path d="M17.44 24.32C17.44 24.32 17.68 26.68 18.48 27.12C18.48 27.12 14.6 27.4 14.68 26.36L15.24 23.84L17.44 24.32Z" fill="#BD704B"/>
<path d="M14.72 18.44C14.72 18.44 15.44 19.44 15.6 20.92C15.76 22.44 14 23.68 17.24 24.28C20.16 24.8 26.44 22.08 24.4 20.04C23.12 18.76 22.24 17.72 22.8 15.24C23.4 12.76 19.96 11.24 19.96 11.24L14.72 18.44Z" fill="#F2C57E"/>
<path d="M22.36 17.6C22.36 17.6 23.44 20.44 26.96 22.56L27.24 21.92C27.24 21.92 24.28 21 22.68 17.48C21.08 13.96 22.28 17.6 22.36 17.6ZM16.04 7.56C16.04 7.56 14 8.44 14.92 14.76C15.2 18.2 13.76 17.92 13.48 17.6C13.16 17.32 14.44 15.56 13.72 14.96C13 14.36 12.12 14.92 11.24 13.2C10.12 10.96 11.44 11.88 12.48 9.96C13.24 8.56 13.8 7.76 14.44 7.84C14.96 7.92 15.44 7.16 16.04 7.56Z" fill="#BD704B"/>
<path d="M11.96 14.84C11.96 14.84 12.04 16.32 11.76 17.16C11.32 18.4 12.44 20.08 14.08 18.28C15.72 16.48 11.96 14.84 11.96 14.84Z" fill="#F2C57E"/>
<path d="M20.28 8C20.28 8 17.12 6.4 14.6 8.2C12.08 10 14.08 9.76 12.56 12.04C11.04 14.32 12.28 19.44 17.16 19.52C22.04 19.6 21.96 10.24 21.96 10.24C21.96 10.24 21.48 8.16 20.28 8Z" fill="#F2C57E"/>
<path d="M19.16 18.4C19.16 18.4 17.64 19.76 17.72 20.68C17.76 21.6 21.52 21.4 18.2 22.32C17.28 22.56 17.32 24.08 18.04 24.36C18.72 24.64 15.28 24.08 15.32 22.92C15.36 21.76 15.84 19.76 14.68 19C14.64 19 17.56 19.88 19.16 18.4Z" fill="#BD704B"/>
<path d="M15.28 22.84C15.28 22.84 18.28 24.28 21.36 22.6C23.64 21.36 24.36 20 24.12 19.72C24.12 19.72 24.68 19.76 25.2 20.56C25.6 21.16 24.96 23 21.6 24.4C18.44 25.68 15.6 24.88 15.04 24.32C14.52 23.76 15.28 22.84 15.28 22.84Z" fill="#AD4646"/>
<path d="M14.08 11.56C13.88 11.56 13.72 11.4 13.72 11.2V10.36C13.72 10.16 13.88 10 14.08 10C14.28 10 14.44 10.16 14.44 10.36V11.2C14.44 11.4 14.28 11.56 14.08 11.56Z" fill="#3F2418"/>
<path d="M15 10.56C15 10.56 12.36 12.44 11.36 12.84C10.36 13.24 10.4 14.32 11.76 15.44C13.12 16.56 17.16 13.64 15 10.56Z" fill="#F2C57E"/>
<path d="M11.16 14.8C11.16 14.8 12.16 15.88 11.56 17.08C11.16 17.88 11.56 19.4 13.04 18.96C13.04 18.96 11.32 19.04 12 17.12C12.24 16.44 12.24 15.36 11.16 14.8ZM19.64 7.72C19.64 7.72 22.52 8.88 21.48 15.2C21.12 18.64 22.8 18.36 23.2 18.04C23.56 17.76 23.6 16.64 24.44 16.08C25.28 15.52 27.24 13.72 26.24 11.96C25.24 10.2 24.2 10.56 23.56 9.4C22.96 8.36 22.56 8.2 21.84 8.2C21.24 8.24 20.4 7.32 19.64 7.72Z" fill="#BD704B"/>
<path d="M18.84 11.92C18.64 11.92 18.44 11.76 18.44 11.52V10.56C18.44 10.36 18.6 10.16 18.84 10.16C19.04 10.16 19.24 10.32 19.24 10.56V11.52C19.2 11.76 19.04 11.92 18.84 11.92Z" fill="#3F2418"/>
<path d="M18.2 9.96C18.2 9.96 17.32 9.48 18.04 9.08C18.96 8.56 20 9.4 20.16 9.88C20.16 9.88 19.08 8.88 18.2 9.36C17.72 9.6 18.2 9.96 18.2 9.96ZM14.4 9.2C14.36 9.12 14.32 9.08 14.24 9.04C14.12 8.96 13.92 8.96 13.76 9C13.6 9.04 13.48 9.16 13.36 9.24C13.44 9.04 13.56 8.88 13.76 8.8C13.84 8.76 13.96 8.76 14.04 8.76C14.24 8.76 14.44 8.84 14.6 8.96C14.76 9.08 14.84 9.28 14.84 9.48C14.8 9.64 14.72 9.8 14.56 9.84C14.52 9.84 14.48 9.88 14.48 9.84C14.48 9.8 14.52 9.76 14.52 9.72C14.56 9.64 14.56 9.56 14.52 9.44C14.48 9.36 14.48 9.28 14.4 9.2ZM13 16.8C13 16.8 13.88 19.76 17.16 19.04C20.16 18.36 20.6 15.8 20.6 15.8C20.8 16.4 19.96 19.88 15.88 19.56C12.92 19.32 13 16.8 13 16.8Z" fill="#BD704B"/>
<path d="M13.64 18.2C13.64 18.2 13.52 19.36 11.84 18.76C11.84 18.76 12.68 19.72 13.72 18.68C14.2 18.16 13.64 18.2 13.64 18.2ZM11 13.96C10.8 13.84 10.8 13.52 10.92 13.32C11.08 13.12 11.4 12.96 11.64 12.84C12.88 12.28 14.2 11.52 15.12 10.44C15.12 10.44 12.32 12.4 10.84 12.92C10.08 13.2 11 13.96 11 13.96Z" fill="#BD704B"/>
<path d="M10.68 13.36C10.24 13.8 10.96 15.12 11.84 15.52C12.84 15.96 14.28 14.24 14 13.76C13.68 13.12 11.6 12.4 10.68 13.36Z" fill="#AD4646"/>
<mask id="mask0_4_49" style="mask-type:luminance" maskUnits="userSpaceOnUse" x="10" y="12" width="5" height="4">
<path d="M10.68 13.36C10.24 13.8 10.96 15.12 11.84 15.52C12.84 15.96 14.28 14.24 14 13.76C13.68 13.12 11.6 12.4 10.68 13.36Z" fill="white"/>
</mask>
<g mask="url(#mask0_4_49)">
<path d="M12.44 14.84C12.36 14.72 12.36 14.52 12.44 14.44C12.48 14.4 12.52 14.36 12.56 14.36C12.64 14.32 12.72 14.32 12.76 14.32C13.12 14.28 13.52 14.44 13.76 14.72C13.96 14.92 13.88 15.12 13.68 15.24C13.44 15.36 13.12 15.4 12.84 15.28C12.72 15.2 12.56 15.04 12.44 14.84ZM11.56 14.88C11.6 14.76 11.64 14.6 11.56 14.48C11.52 14.44 11.48 14.4 11.44 14.4C11.4 14.36 11.32 14.36 11.28 14.36C11 14.32 10.72 14.48 10.48 14.76C10.32 14.96 10.4 15.16 10.56 15.28C10.76 15.4 11 15.44 11.2 15.32C11.36 15.24 11.48 15.08 11.56 14.88Z" fill="#6A2524"/>
</g>
<path d="M18 28C11.4 28 6 22.64 6 16C6 9.36 11.4 4 18 4C24.6 4 30 9.4 30 16C30 22.6 24.64 28 18 28ZM18 5.6C12.28 5.6 7.6 10.28 7.6 16C7.6 21.72 12.28 26.4 18 26.4C23.72 26.4 28.4 21.72 28.4 16C28.4 10.28 23.72 5.6 18 5.6Z" fill="#AD4646"/>
<path d="M14.6 7.96C14.6 7.96 18.24 6.44 20.88 8.76C20.88 8.76 20.8 7.68 18.76 7.24C17.68 7 15.28 7.04 14.6 7.96Z" fill="#BD704B"/>
<path d="M14.28 17.16C14.4125 17.16 14.52 17.0884 14.52 17C14.52 16.9116 14.4125 16.84 14.28 16.84C14.1475 16.84 14.04 16.9116 14.04 17C14.04 17.0884 14.1475 17.16 14.28 17.16Z" fill="#BD704B"/>
<path d="M15.84 18C15.9725 18 16.08 17.9284 16.08 17.84C16.08 17.7516 15.9725 17.68 15.84 17.68C15.7075 17.68 15.6 17.7516 15.6 17.84C15.6 17.9284 15.7075 18 15.84 18Z" fill="#BD704B"/>
<path d="M17.24 17.96C17.3725 17.96 17.48 17.8884 17.48 17.8C17.48 17.7116 17.3725 17.64 17.24 17.64C17.1075 17.64 17 17.7116 17 17.8C17 17.8884 17.1075 17.96 17.24 17.96Z" fill="#BD704B"/>
<path d="M16.56 18.68C16.6925 18.68 16.8 18.6084 16.8 18.52C16.8 18.4316 16.6925 18.36 16.56 18.36C16.4275 18.36 16.32 18.4316 16.32 18.52C16.32 18.6084 16.4275 18.68 16.56 18.68Z" fill="#BD704B"/>
<path d="M14.8 18.24C14.9325 18.24 15.04 18.1684 15.04 18.08C15.04 17.9916 14.9325 17.92 14.8 17.92C14.6675 17.92 14.56 17.9916 14.56 18.08C14.56 18.1684 14.6675 18.24 14.8 18.24Z" fill="#BD704B"/>
</g>
<path d="M35.727 20L34.165 12.3H35.837L36.816 18.174H36.992L38.092 12.3H40.468L41.568 18.174H41.744L42.723 12.3H44.395L42.833 20H40.457L39.368 13.95H39.192L38.103 20H35.727ZM46.6637 20.11C45.6957 20.11 44.8267 19.505 44.8267 18.284C44.8267 17.184 45.6187 16.458 47.1697 16.458H48.5117V16.26C48.5117 15.622 48.0167 15.413 47.4777 15.413C46.8287 15.413 46.2677 15.677 45.6847 16.106L45.0357 15.017C45.7287 14.445 46.5537 14.082 47.5547 14.082C48.7757 14.082 49.9197 14.643 49.9197 16.271V20H48.5117V19.34L48.3357 19.274C47.9507 19.813 47.4227 20.11 46.6637 20.11ZM46.2347 18.185C46.2347 18.614 46.5977 18.9 47.1257 18.9C47.7417 18.9 48.2367 18.548 48.5117 18.141V17.47H47.1477C46.5647 17.47 46.2347 17.712 46.2347 18.185ZM51.3871 20V12.19H52.7951V20H51.3871ZM54.2446 20V12.19H55.6526V20H54.2446ZM57.993 22.211C57.597 22.211 57.256 22.123 56.992 22.035V20.748C57.344 20.858 57.531 20.913 57.872 20.913C58.312 20.913 58.719 20.671 58.917 20.099L59.005 19.846H58.642L56.519 14.192H58.125L59.445 18.196H59.621L60.941 14.192H62.547L60.248 20.33C59.709 21.771 59.005 22.211 57.993 22.211Z" fill="white"/>
<path d="M72.625 11.1875C72.7812 11.1875 72.9141 11.2422 73.0234 11.3516C73.1328 11.4609 73.1875 11.5938 73.1875 11.75C73.1875 11.9062 73.1328 12.0391 73.0234 12.1484C72.9141 12.2578 72.7812 12.3125 72.625 12.3125H69.0625V20.1875H76.9375V16.625C76.9375 16.4688 76.9922 16.3359 77.1016 16.2266C77.2109 16.1172 77.3438 16.0625 77.5 16.0625C77.6562 16.0625 77.7891 16.1172 77.8984 16.2266C78.0078 16.3359 78.0625 16.4688 78.0625 16.625V20.375C78.0625 20.543 78.0195 20.6992 77.9336 20.8438C77.8516 20.9883 77.7383 21.1016 77.5938 21.1836C77.4492 21.2695 77.293 21.3125 77.125 21.3125H68.875C68.707 21.3125 68.5508 21.2695 68.4062 21.1836C68.2617 21.1016 68.1465 20.9883 68.0605 20.8438C67.9785 20.6992 67.9375 20.543 67.9375 20.375V12.125C67.9375 11.957 67.9785 11.8008 68.0605 11.6562C68.1465 11.5117 68.2617 11.3984 68.4062 11.3164C68.5508 11.2305 68.707 11.1875 68.875 11.1875H72.625ZM77.5 11.1875C77.6562 11.1875 77.7891 11.2422 77.8984 11.3516C78.0078 11.4609 78.0625 11.5938 78.0625 11.75V14C78.0625 14.1562 78.0078 14.2891 77.8984 14.3984C77.7891 14.5078 77.6562 14.5625 77.5 14.5625C77.3438 14.5625 77.2109 14.5078 77.1016 14.3984C76.9922 14.2891 76.9375 14.1562 76.9375 14V13.1094L73.3984 16.6484C73.2891 16.7578 73.1562 16.8125 73 16.8125C72.8438 16.8125 72.7109 16.7578 72.6016 16.6484C72.4922 16.5391 72.4375 16.4062 72.4375 16.25C72.4375 16.0938 72.4922 15.9609 72.6016 15.8516L76.1406 12.3125H75.25C75.0938 12.3125 74.9609 12.2578 74.8516 12.1484C74.7422 12.0391 74.6875 11.9062 74.6875 11.75C74.6875 11.5938 74.7422 11.4609 74.8516 11.3516C74.9609 11.2422 75.0938 11.1875 75.25 11.1875H77.5Z" fill="white"/>
<defs>
<clipPath id="clip0_4_49">
<rect width="24" height="24" fill="white" transform="translate(6 4)"/>
</clipPath>
</defs>
</svg>
